<svg width="140" height="32" viewBox="0 0 140 32" fill="none" xmlns="http://www.w3.org/2000/svg">
<path fill-rule="evenodd" clip-rule="evenodd" d="M6 0C2.68629 0 0 2.68629 0 6V26C0 29.3137 2.6863 32 6 32H134C137.314 32 140 29.3137 140 26V6C140 2.68629 137.314 0 134 0H6ZM96.12 16.9944C94.3239 17.0653 92.5674 16.4589 91.1845 15.2854C90.5646 14.7578 90.0639 14.0962 89.7301 13.3559C89.3963 12.6078 89.2294 11.7966 89.2453 10.9775C89.2294 10.1585 89.3884 9.35516 89.7222 8.61486C90.056 7.87457 90.5487 7.21302 91.1686 6.69324C92.4562 5.56704 94.1013 5 96.1121 5C98.1228 5 99.776 5.55916 101.079 6.68536C101.699 7.20515 102.2 7.86669 102.534 8.61486C102.868 9.35516 103.035 10.1663 103.019 10.9854C103.035 11.8045 102.876 12.6156 102.542 13.3638C102.208 14.112 101.707 14.7656 101.087 15.2933C99.7919 16.4274 98.1387 16.9944 96.12 16.9944ZM96.12 15.3406C97.4473 15.3957 98.7587 14.9625 99.7919 14.1199C100.253 13.7418 100.618 13.2614 100.865 12.718C101.111 12.1746 101.23 11.5839 101.214 10.9854C101.23 10.3947 101.103 9.80407 100.857 9.26066C100.61 8.71725 100.245 8.24471 99.7839 7.86669C98.7269 7.07126 97.4473 6.63811 96.128 6.63811C94.8087 6.63811 93.5291 7.07126 92.4721 7.86669C92.019 8.24471 91.6534 8.72512 91.4071 9.26853C91.1607 9.81194 91.0415 10.4026 91.0574 10.9933C91.0415 11.5918 91.1607 12.1825 91.4071 12.718C91.6534 13.2614 92.019 13.7418 92.4721 14.1199C93.4973 14.9625 94.7928 15.3957 96.12 15.3406ZM23.7564 16.64H22V5.30715H32.3797V6.961H23.7564V9.78832H29.3278V11.4186H23.7564V16.64ZM36.4568 11.6863V16.64H34.6924V5.33077H42.4255C43.3951 5.26777 44.3489 5.55916 45.1198 6.14983C45.4456 6.44122 45.7 6.79562 45.8748 7.19727C46.0417 7.59892 46.1212 8.03208 46.0974 8.47311C46.1133 9.24491 45.843 9.99308 45.3264 10.5759C44.8019 11.1744 44.0866 11.5524 43.3077 11.6548L46.4232 16.6321H44.5317L41.3526 11.6863H36.4568ZM36.4648 10.0325H42.4255C42.9183 10.064 43.411 9.9222 43.8164 9.62293C43.9753 9.48117 44.1025 9.30791 44.1899 9.11102C44.2694 8.91413 44.3091 8.7015 44.3012 8.48886C44.3171 8.27622 44.2773 8.06358 44.1979 7.85881C44.1104 7.66193 43.9833 7.48866 43.8243 7.34691C43.419 7.05551 42.9262 6.91375 42.4335 6.93738H36.4648V10.0325ZM49.2685 5.31502V16.6479L60.2919 16.64V15.0098H51.0329V11.4264H56.7949V9.79619H51.0329V6.96888H59.8071V5.31502H49.2685ZM62.7954 16.64V5.30715H73.334V6.961H64.5519V9.78832H70.3139V11.4186H64.5519V15.0019H73.8109V16.6321L62.7954 16.64ZM85.7722 6.89012C84.6356 5.83481 83.1574 5.30715 81.3215 5.30715H76.3383V16.6243H81.3532C83.221 16.6164 84.7072 16.1045 85.8039 15.0885C86.3523 14.5688 86.7815 13.9308 87.0676 13.2299C87.3458 12.529 87.4809 11.7651 87.4491 11.009C87.4809 10.2372 87.3379 9.4733 87.0517 8.7645C86.7656 8.0557 86.3285 7.41778 85.7722 6.89012ZM78.1185 6.93738H81.3532C82.4898 6.89012 83.6104 7.29178 84.4608 8.0557C84.8582 8.42585 85.1602 8.88263 85.3668 9.38667C85.5655 9.8907 85.6609 10.4341 85.645 10.9775C85.6688 11.5209 85.5814 12.0722 85.3827 12.5763C85.184 13.0803 84.882 13.5449 84.4926 13.923C83.7455 14.6396 82.7044 15.0019 81.3532 15.0019H78.1185V6.93738ZM105.872 5.30715V16.64L107.636 16.6479V8.48886L111.936 14.7893L116.252 8.48098V16.64H118V5.30715H116.538L111.936 11.9383L107.334 5.30715H105.872ZM27.8063 23.9183H24.9182V23.073H27.7962C27.7862 22.5095 27.5648 21.9661 27.1925 21.5535C26.9811 21.3019 26.7094 21.1007 26.3975 20.9698C26.0654 20.829 25.7031 20.7585 25.3409 20.7585C24.9786 20.7585 24.6164 20.829 24.2843 20.9698C24.0126 21.0705 23.7711 21.2415 23.5799 21.4629C23.3082 21.7749 23.1069 22.1472 22.9962 22.5497L22.956 22.761H22C22.0503 22.2076 22.2415 21.6843 22.5535 21.2315C22.8755 20.7786 23.2981 20.4264 23.8013 20.2051C24.2843 19.9937 24.8076 19.8931 25.3409 19.9032C25.8038 19.883 26.2667 19.9636 26.6994 20.1346C27.1321 20.3057 27.5245 20.5774 27.8465 20.9095C28.4503 21.634 28.7824 22.5598 28.7824 23.5158C28.7824 24.4717 28.4503 25.3875 27.8465 26.1221C27.5245 26.4541 27.1321 26.7258 26.6994 26.8969C26.2667 27.068 25.8038 27.1485 25.3409 27.1283C24.8176 27.1384 24.2943 27.0378 23.8013 26.8265C23.2981 26.6051 22.8654 26.2529 22.5535 25.8101C22.2314 25.3573 22.0403 24.834 22 24.2805H22.9459V24.3409C22.9459 24.3711 22.9459 24.4114 22.9761 24.4717C22.9962 24.5422 23.0164 24.6126 23.0365 24.673C23.1371 24.9648 23.2881 25.2466 23.4893 25.478C23.6101 25.629 23.7509 25.7698 23.912 25.8805C24.1031 26.0013 24.3044 26.0919 24.5157 26.1522C25.1497 26.3334 25.8239 26.2831 26.4277 26.0114C26.7296 25.8805 27.0013 25.6793 27.2126 25.4176C27.5849 25.0051 27.7862 24.4717 27.8063 23.9183ZM34.4378 23.8277C34.4981 23.6969 34.5183 23.5459 34.5183 23.395C34.5283 23.2038 34.4881 23.0227 34.3975 22.8315C34.317 22.6604 34.1962 22.5195 34.0453 22.4088C33.6327 22.1573 33.1598 22.0365 32.6767 22.0667H30.2113V26.9774H32.8679C33.3811 27.0176 33.8944 26.8969 34.3472 26.6353C34.5082 26.5246 34.639 26.3636 34.7195 26.1824C34.8101 26.0013 34.8403 25.8 34.8302 25.5988C34.8302 25.4176 34.79 25.2365 34.7195 25.0755C34.6591 24.9346 34.5686 24.8139 34.4579 24.7132C34.3472 24.6327 34.2365 24.5724 34.1157 24.5221C33.995 24.4717 33.8642 24.4415 33.7333 24.4315V24.361H33.8139C33.9749 24.3309 34.1258 24.2503 34.2466 24.1296C34.3371 24.039 34.3975 23.9384 34.4378 23.8277ZM32.6566 22.8315C33.3107 22.8315 33.6428 23.0529 33.6428 23.4856C33.6428 23.5862 33.6227 23.6768 33.5925 23.7472C33.5522 23.8277 33.4918 23.9082 33.4214 23.9585C33.2302 24.0994 32.9887 24.1598 32.7572 24.1497H31.0566V22.8315H32.6566ZM33.9647 25.5585C33.9594 25.1123 33.5971 24.8843 32.8679 24.8843H31.0566V26.2529H32.8679C33.5971 26.2329 33.9594 26.0047 33.9647 25.5585ZM36.6617 26.3937C36.4201 26.1522 36.2289 25.8604 36.0981 25.5485C35.9673 25.2264 35.8969 24.8944 35.8969 24.5422C35.8969 24.2 35.9673 23.8579 36.0981 23.5359C36.2289 23.2139 36.4201 22.9321 36.6617 22.6906C37.1749 22.2176 37.8591 21.9661 38.5535 21.9963C39.2478 21.9661 39.9321 22.2176 40.4554 22.6906C40.9384 23.1837 41.2 23.8478 41.2 24.5422C41.2 25.2365 40.9283 25.9007 40.4554 26.3937C39.9321 26.8667 39.2579 27.1183 38.5535 27.0881C37.8591 27.1183 37.1749 26.8667 36.6617 26.3937ZM39.8415 25.8C40.1535 25.4579 40.3246 25.0051 40.3246 24.5321C40.3246 24.0592 40.1535 23.6164 39.8415 23.2642C39.4793 22.9623 39.0264 22.7912 38.5635 22.7912C38.0906 22.7912 37.6378 22.9623 37.2856 23.2642C36.9736 23.6063 36.7925 24.0592 36.7925 24.5321C36.7925 25.0051 36.9635 25.4579 37.2856 25.8C37.4566 25.9711 37.6579 26.0919 37.8793 26.1824C38.1006 26.2629 38.3422 26.3032 38.5736 26.2931C39.0466 26.3032 39.4994 26.1321 39.8415 25.8ZM43.0919 22.0868L42.639 25.0151C42.5887 25.2969 42.5183 25.5787 42.3975 25.8604C42.3673 25.9711 42.2969 26.0617 42.2063 26.1321C42.1157 26.2026 42.0051 26.2428 41.8944 26.2428C41.7837 26.2428 41.673 26.2227 41.5723 26.1824V27.0076L41.6428 27.0378C41.7736 27.078 41.9145 27.0982 42.0554 27.0982C42.2264 27.0982 42.4076 27.068 42.5686 26.9875C42.7296 26.907 42.8604 26.7963 42.9711 26.6453C43.2629 26.1522 43.434 25.5887 43.4843 25.0151L43.8063 22.8717H45.9095V26.9975H46.7547V22.0868H43.0919ZM49.0893 22.0868V24.1698H50.0554C50.0604 24.1297 50.0654 24.087 50.0704 24.0443L50.0705 24.0442C50.0755 24.0014 50.0805 23.9586 50.0856 23.9183C50.1258 23.7371 50.1862 23.5661 50.2566 23.395C50.3472 23.1535 50.478 22.9321 50.639 22.7309C50.8403 22.5095 51.0717 22.3283 51.3434 22.2076C51.6856 22.0466 52.0478 21.9661 52.4202 21.9761C52.7422 21.9661 53.0743 22.0164 53.3761 22.1472C53.678 22.268 53.9497 22.4592 54.1812 22.7007C54.6139 23.2139 54.8554 23.868 54.8554 24.5422C54.8554 25.2164 54.6139 25.8705 54.1812 26.3837C53.9598 26.6151 53.6881 26.8063 53.3862 26.9271C53.0843 27.0478 52.7623 27.1082 52.4403 27.0881C52.1585 27.0881 51.8868 27.0478 51.6151 26.9774C51.3937 26.917 51.1824 26.8063 50.9912 26.6554C50.8403 26.5246 50.6893 26.3837 50.5686 26.2227C50.3069 25.8604 50.1258 25.4478 50.0554 25.0051V24.8843H49.0793V26.9673H48.234V22.0868H49.0893ZM53.5673 25.79C53.829 25.4277 53.9698 24.9849 53.9698 24.5321C53.9698 24.0793 53.829 23.6466 53.5673 23.2742C53.4164 23.1132 53.2453 22.9925 53.0541 22.912C52.8629 22.8315 52.6516 22.7812 52.4403 22.7812C52.229 22.7812 52.0176 22.8214 51.8264 22.912C51.6353 22.9925 51.4541 23.1233 51.3132 23.2742C51.0315 23.6264 50.8906 24.0692 50.9007 24.522C50.8805 24.9749 51.0315 25.4277 51.3132 25.7799C51.4541 25.9409 51.6353 26.0717 51.8264 26.1522C52.0176 26.2428 52.229 26.2831 52.4503 26.2831C52.6617 26.2831 52.873 26.2428 53.0742 26.1522C53.2453 26.0818 53.4164 25.951 53.5673 25.79ZM60.4403 26.9975V28.2453H61.2956V26.2126H60.5611V22.0868H59.7158V26.2126H56.9585V22.0868H56.1132V26.9975H60.4403ZM66.1359 26.9975V23.073L63.3384 26.9975H62.2717V22.0868H63.117V26.0013L65.8944 22.0768H66.9812V26.9975H66.1359ZM68.2592 26.9975H69.1749L70.2114 25.2969H71.751V26.9975H72.5963V22.0868H70.4026C69.8592 22.0566 69.3158 22.1975 68.8629 22.4893C68.6818 22.6302 68.5309 22.8114 68.4403 23.0227C68.3497 23.2239 68.3095 23.4554 68.3195 23.6868C68.3195 23.8881 68.3598 24.0994 68.4302 24.2906C68.4906 24.4516 68.5812 24.6026 68.6919 24.7334C68.7925 24.834 68.8931 24.9145 69.0139 24.9849C69.1346 25.0654 69.2554 25.1158 69.3862 25.156L68.2592 26.9975ZM69.2755 23.3246C69.3258 23.2139 69.4063 23.1233 69.4969 23.0428C69.7787 22.8818 70.1107 22.8114 70.4428 22.8415H71.751V24.522H70.4428C70.1107 24.5522 69.7787 24.4717 69.4969 24.3107C69.4063 24.2403 69.3258 24.1397 69.2755 24.029C69.2252 23.9183 69.195 23.7975 69.195 23.6768C69.195 23.556 69.2252 23.4353 69.2755 23.3246ZM76.4202 26.9975V22.0868H80.2843V22.8818H77.2554V27.0076L76.4202 26.9975ZM80.6365 24.5422C80.6365 25.2365 80.8982 25.9007 81.3812 26.3937C81.9145 26.8466 82.5888 27.0881 83.273 27.0881C83.9573 27.0881 84.6315 26.8466 85.1648 26.3937C85.6378 25.9007 85.9095 25.2365 85.9095 24.5422C85.9095 23.8478 85.6479 23.1837 85.1648 22.6906C84.6416 22.2478 83.9674 21.9963 83.273 21.9963C82.5888 21.9963 81.9145 22.2378 81.3812 22.6906C80.9082 23.1837 80.6365 23.8478 80.6365 24.5422ZM85.0542 24.5321C85.0542 25.0051 84.8831 25.4579 84.5712 25.8C84.4001 25.961 84.2089 26.0919 83.9875 26.1724C83.7661 26.2629 83.5347 26.3032 83.3032 26.2931C83.0718 26.3032 82.8303 26.2629 82.6089 26.1824C82.3875 26.0919 82.1862 25.9711 82.0152 25.8C81.6932 25.4579 81.5221 25.0051 81.5221 24.5321C81.5221 24.0592 81.7032 23.6063 82.0152 23.2642C82.3674 22.9623 82.8202 22.7912 83.2932 22.7912C83.756 22.7912 84.2089 22.9623 84.5712 23.2642C84.8831 23.6164 85.0542 24.0592 85.0542 24.5321ZM88.0328 29H87.1975V22.0868H88.0428V22.8214H88.0831C88.1636 22.7107 88.2542 22.6101 88.3548 22.5296C88.4655 22.439 88.5862 22.3485 88.7171 22.278C88.8881 22.1875 89.0693 22.117 89.2504 22.0768C89.4718 22.0164 89.7032 21.9963 89.9246 21.9963C90.5988 21.9761 91.263 22.2277 91.7561 22.7007C92.2189 23.1937 92.4806 23.8579 92.4806 24.5522C92.4806 25.2365 92.2189 25.9007 91.7561 26.4038C91.263 26.8768 90.6089 27.1283 89.9246 27.1082C89.502 27.1283 89.0793 27.0277 88.707 26.8164C88.4957 26.6956 88.3045 26.5447 88.1435 26.3736L88.073 26.2831H88.0328V29ZM91.1221 25.8C91.2831 25.639 91.4038 25.4378 91.4944 25.2164C91.5749 24.995 91.6152 24.7636 91.6051 24.5321C91.6152 24.3007 91.5749 24.0692 91.4944 23.8579C91.4139 23.6466 91.2831 23.4453 91.1322 23.2843C90.9611 23.1132 90.7498 22.9925 90.5284 22.9019C90.307 22.8214 90.0655 22.7812 89.824 22.7912C89.5825 22.7812 89.351 22.8114 89.1196 22.9019C88.8982 22.9824 88.6869 23.1132 88.5158 23.2843C88.3548 23.4453 88.234 23.6466 88.1435 23.8579C88.063 24.0692 88.0227 24.3007 88.0227 24.5321C88.0126 24.7736 88.0529 25.0051 88.1435 25.2265C88.234 25.4478 88.3649 25.639 88.5359 25.8101C88.8982 26.1221 89.3611 26.3032 89.834 26.3032C90.307 26.3032 90.7699 26.1321 91.1322 25.8101L91.1221 25.8ZM93.7686 25.5485C93.8995 25.8604 94.0907 26.1522 94.3322 26.3937C94.8454 26.8667 95.5296 27.1183 96.224 27.0881C96.9284 27.1183 97.6026 26.8667 98.1259 26.3937C98.5988 25.9007 98.8705 25.2365 98.8705 24.5422C98.8705 23.8478 98.6089 23.1837 98.1259 22.6906C97.6026 22.2176 96.9183 21.9661 96.224 21.9963C95.5296 21.9661 94.8454 22.2176 94.3322 22.6906C94.0907 22.9321 93.8995 23.2139 93.7686 23.5359C93.6378 23.8579 93.5674 24.2 93.5674 24.5422C93.5674 24.8944 93.6378 25.2264 93.7686 25.5485ZM97.995 24.5321C97.995 25.0051 97.824 25.4579 97.512 25.8C97.341 25.9711 97.1397 26.1019 96.9183 26.1824C96.6969 26.2629 96.4655 26.3032 96.224 26.2931C95.9925 26.3032 95.751 26.2629 95.5296 26.1824C95.3083 26.0919 95.107 25.9711 94.9359 25.8C94.6139 25.4579 94.4429 25.0051 94.4429 24.5321C94.4429 24.0592 94.624 23.6063 94.9359 23.2642C95.2881 22.9522 95.751 22.7812 96.224 22.7812C96.6969 22.7812 97.1498 22.9522 97.512 23.2642C97.824 23.6164 97.995 24.0592 97.995 24.5321ZM100.108 28.2453H99.263V26.2126H99.6152C99.7158 26.2126 99.8164 26.1824 99.8969 26.1321C99.9774 26.0717 100.038 25.9912 100.078 25.9007C100.199 25.5485 100.279 25.1761 100.31 24.7937L100.652 22.0868H104.304V26.2126H105.029V28.2453H104.174V26.9975H100.108V28.2453ZM103.439 22.8717H101.396L101.115 25.1862C101.094 25.4076 101.044 25.6189 100.974 25.8202C100.943 25.9409 100.873 26.0516 100.793 26.1422L100.722 26.1925H103.469L103.439 22.8717ZM105.955 24.9648C105.844 25.1661 105.794 25.3875 105.804 25.6189C105.784 25.8504 105.834 26.0818 105.965 26.273C106.076 26.4843 106.237 26.6453 106.438 26.756C106.951 27.0076 107.525 27.1384 108.098 27.1082C108.491 27.1183 108.883 27.0478 109.245 26.8969C109.366 26.8466 109.477 26.7862 109.577 26.7158C109.658 26.6554 109.749 26.5849 109.819 26.5145H109.859L109.889 26.5749C109.98 26.756 110.131 26.8969 110.302 26.9875C110.473 27.078 110.674 27.1183 110.866 27.0982C111.016 27.1082 111.167 27.078 111.298 27.0176V26.2428C111.218 26.2831 111.137 26.3032 111.047 26.2931C110.986 26.2931 110.926 26.2831 110.866 26.2629C110.805 26.2428 110.765 26.2026 110.725 26.1522C110.644 25.9912 110.604 25.8101 110.624 25.629V23.8378C110.634 23.5761 110.584 23.3044 110.473 23.0629C110.362 22.8214 110.191 22.6101 109.98 22.4491C109.497 22.107 108.913 21.9359 108.33 21.9661C107.756 21.9359 107.193 22.0768 106.689 22.3585C106.478 22.4793 106.307 22.6604 106.196 22.8717C106.076 23.0831 106.025 23.3246 106.035 23.5661H106.881C106.881 23.0327 107.354 22.7711 108.32 22.7711C108.702 22.7409 109.084 22.8415 109.406 23.0529C109.517 23.1535 109.618 23.2642 109.678 23.4051C109.749 23.5459 109.779 23.6969 109.769 23.8478V24.6227L109.577 24.5019C109.376 24.3912 109.165 24.3107 108.954 24.2604C108.652 24.1799 108.34 24.1397 108.028 24.1397C107.474 24.1195 106.921 24.2403 106.428 24.5019C106.227 24.6026 106.066 24.7636 105.955 24.9648ZM106.689 25.629C106.689 25.1761 107.203 24.9548 108.229 24.9548C108.511 24.9548 108.793 24.9849 109.074 25.0453C109.255 25.0856 109.427 25.1459 109.588 25.2164C109.648 25.2466 109.708 25.2868 109.769 25.3371V25.9007C109.718 25.951 109.658 25.9912 109.588 26.0214C109.427 26.1019 109.255 26.1623 109.074 26.2026C108.793 26.273 108.511 26.3032 108.229 26.3032C107.203 26.3032 106.689 26.0818 106.689 25.629Z" fill="#D2FF00"/>
</svg>
