<?xml version="1.0" encoding="UTF-8"?>
<svg id="_Слой_2" data-name="Слой 2" xmlns="http://www.w3.org/2000/svg" viewBox="0 0 148 27">
  <defs>
    <style>
      .cls-1 {
        fill: #fff;
      }

      .cls-2 {
        fill: #d3b37d;
      }

      .cls-3 {
        fill: #26358c;
      }
    </style>
  </defs>
  <g id="_Слой_2-2" data-name="Слой 2">
    <rect class="cls-3" width="148" height="27" rx="6" ry="6"/>
  </g>
  <g id="_Слой_1-2" data-name="Слой 1">
    <g>
      <path class="cls-2" d="M21.12,3.35c-5.61,0-10.15,4.54-10.15,10.15s4.54,10.15,10.15,10.15,10.15-4.54,10.15-10.15S26.73,3.35,21.12,3.35Z"/>
      <g>
        <path class="cls-1" d="M23.32,9.07s0-.01,0-.02h-4.65l.02,.06c.27,.82,.42,1.7,.42,2.62s-.15,1.8-.42,2.62l-.02,.06h4.65s0-.01,0-.02c.28-.84,.44-1.73,.44-2.67s-.16-1.83-.44-2.67Z"/>
        <path class="cls-1" d="M27.43,11.2s0,0,0,0h-2.79v.04c.18,.49,.27,1.02,.27,1.57s-.09,1.08-.25,1.57v.04s2.78,0,2.78,0c0,0,0,0,0,0,.17-.5,.26-1.04,.26-1.6s-.09-1.1-.26-1.6Z"/>
        <path class="cls-1" d="M17.49,11.2s0,0,0,0h-2.79v.04c.18,.49,.27,1.02,.27,1.57s-.09,1.08-.25,1.57v.04s2.78,0,2.78,0c0,0,0,0,0,0,.17-.5,.26-1.04,.26-1.6s-.09-1.1-.26-1.6Z"/>
        <path class="cls-1" d="M16.76,9.24s0,0,0,0h-1.09c.06,.21,.1,.42,.1,.63s-.04,.42-.1,.62h0s1.09,.01,1.09,.01c0,0,0,0,0,0,.07-.2,.1-.41,.1-.63s-.04-.43-.1-.63Z"/>
        <path class="cls-1" d="M26.6,9.24s0,0,0,0h-1.09c.06,.21,.1,.42,.1,.63s-.04,.42-.1,.62h0s1.09,.01,1.09,.01c0,0,0,0,0,0,.07-.2,.1-.41,.1-.63s-.04-.43-.1-.63Z"/>
        <path class="cls-1" d="M21.74,6.56s0,0,0,0h-1.43v.02c.09,.25,.14,.52,.14,.81s-.05,.55-.13,.81v.02s1.42,0,1.42,0c0,0,0,0,0,0,.09-.26,.13-.53,.13-.82s-.05-.56-.13-.82Z"/>
        <path class="cls-1" d="M25.77,18.51l1.59-3.05-12.67-.02,1.83,3.05h4.41v1.11c-.26,.1-.45,.34-.45,.64,0,.35,.27,.64,.61,.68,.02,0,.04,0,.07,0,0,0,0,0,0,0,0,0,0,0,0,0,.38,0,.68-.31,.68-.68,0-.29-.19-.54-.45-.64v-1.11l4.37,.02Z"/>
      </g>
    </g>
    <rect class="cls-2" x="41.99" y="22.59" width="93.04" height="1.06"/>
    <g>
      <g>
        <path class="cls-1" d="M51.71,7.13h-6.77v12.7h-2.67V4.63h12.12v15.2h-2.67V7.13Z"/>
        <path class="cls-1" d="M58.48,4.63h2.69l5.19,7.1,4.95-7.1h2.52v15.2h-2.65V8.84l-4.8,6.75h-.39l-4.84-6.69v10.92h-2.67V4.63Z"/>
        <path class="cls-1" d="M79.89,10.84h6.77c-.52-2.54-2.61-3.95-5.47-3.95-1.22,0-2.5,.37-3.56,1.17l-1.04-2c1.06-.91,2.91-1.67,5.23-1.67,4.47,0,7.64,3.08,7.64,7.82s-3.08,7.86-7.95,7.86c-2.11,0-4.04-.67-5.1-1.59l1.15-2.24c.96,.74,2.32,1.32,3.91,1.32,2.61,0,4.8-1.43,5.25-4.23h-6.84v-2.5Z"/>
        <path class="cls-1" d="M98.11,17.98c-4.19,0-7.01-2.13-7.01-5.97s2.84-5.91,7.01-5.97v-1.59h2.67v1.59c4.15,.06,7.01,2.24,7.01,5.97s-2.87,5.95-7.01,5.97v2.02h-2.67v-2.02Zm0-2.45v-7.04c-2.78,.02-4.19,1.45-4.19,3.52,0,2.28,1.52,3.5,4.19,3.52Zm2.67-7.04v7.04c2.76-.02,4.19-1.19,4.19-3.52,0-2.04-1.35-3.47-4.19-3.52Z"/>
        <path class="cls-1" d="M110.03,9.1c-.46-.48-.74-1.3-.74-2.02,0-2.02,1.24-3.19,2.17-3.73l1.15,1.06c-.63,.52-.98,1.32-.98,2.13,0,.52,.2,1.04,.5,1.35l-2.11,1.22Z"/>
      </g>
      <g>
        <path class="cls-1" d="M114.3,17.85c2.46-2.42,6.29-5.92,6.29-8.86,0-1.21-.67-1.97-1.92-1.97-1.08,0-1.86,.76-2.18,2.03l-2.07-.93c.41-2.2,2.14-3.59,4.54-3.59,2.87,0,4.28,1.94,4.28,3.95,0,4.23-4.51,8.06-5.7,9.03h6.29v2.31h-9.5v-1.99Z"/>
        <path class="cls-1" d="M125.29,17.52l1.4-1.81c.76,1.12,1.92,1.88,3.24,1.88,1.62,0,2.44-.95,2.44-2.1,0-1.38-1.06-2.14-2.81-2.14h-1.08v-2.48h.97c1.23,0,2.33-.78,2.33-2.07,0-1.08-.63-1.84-1.92-1.84-1.21,0-2.1,.52-2.85,1.62l-1.38-1.75c.82-1.53,2.4-2.35,4.47-2.35,2.59,0,4.34,1.47,4.34,3.84,0,1.71-.78,2.92-2.31,3.59v.06c1.88,.32,2.89,1.81,2.89,3.61,0,2.79-2.16,4.49-4.95,4.49-2.31,0-4-1.01-4.79-2.55Z"/>
      </g>
    </g>
  </g>
</svg>